{"asset":{"generator":"Khronos glTF Blender I/O v5.1.19","version":"2.0"},"scene":0,"scenes":[{"name":"Scene","nodes":[0]}],"nodes":[{"mesh":0,"name":"default","rotation":[0.7071068286895752,0,0,0.7071068286895752],"scale":[1,1,1]}],"materials":[{"doubleSided":true,"name":"Material","pbrMetallicRoughness":{"baseColorFactor":[1,1,1,1],"metallicFactor":0,"roughnessFactor":1,"baseColorTexture":{"index":0,"texCoord":0}},"alphaMode":"MASK","alphaCutoff":0.5}],"meshes":[{"name":"Mesh","primitives":[{"attributes":{"POSITION":0,"NORMAL":1,"TEXCOORD_0":2},"indices":3,"material":0}]}],"accessors":[{"bufferView":0,"componentType":5126,"count":84,"max":[0.5862640142440796,0.5806440114974976,0.04323599860072136],"min":[-0.5778480172157288,-0.5460699796676636,-0.5338330268859863],"type":"VEC3"},{"bufferView":1,"componentType":5126,"count":84,"type":"VEC3"},{"bufferView":2,"componentType":5126,"count":84,"type":"VEC2"},{"bufferView":3,"componentType":5123,"count":84,"type":"SCALAR"}],"bufferViews":[{"buffer":0,"byteLength":1008,"byteOffset":0,"target":34962},{"buffer":0,"byteLength":1008,"byteOffset":1008,"target":34962},{"buffer":0,"byteLength":672,"byteOffset":2016,"target":34962},{"buffer":0,"byteLength":168,"byteOffset":2688,"target":34963}],"buffers":[{"byteLength":2856,"uri":"MESH_3D_MODELS/Stylized_MidGrass_Mesh.bin"}],"images":[{"uri":"GRADIENT_GRASS_TEXTURES/stylized_grass_texture_05.png","name":"stylized_grass_texture_05"}],"samplers":[{"magFilter":9729,"minFilter":9987,"wrapS":10497,"wrapT":10497}],"textures":[{"source":0,"sampler":0}]}
