{"asset":{"generator":"Khronos glTF Blender I/O v5.1.19","version":"2.0"},"scene":0,"scenes":[{"name":"Scene","nodes":[0]}],"nodes":[{"mesh":0,"name":"default","rotation":[0.7071068286895752,0,0,0.7071068286895752],"scale":[1,1,1]}],"materials":[{"doubleSided":true,"name":"Material","pbrMetallicRoughness":{"baseColorFactor":[0.6000000238418579,0.6000000238418579,0.6000000238418579,1],"metallicFactor":0,"roughnessFactor":0.5527864098548889}}],"meshes":[{"name":"Mesh","primitives":[{"attributes":{"POSITION":0,"NORMAL":1,"TEXCOORD_0":2},"indices":3,"material":0}]}],"accessors":[{"bufferView":0,"componentType":5126,"count":84,"max":[0.5862640142440796,0.5806440114974976,0.04323599860072136],"min":[-0.5778480172157288,-0.5460699796676636,-0.5338330268859863],"type":"VEC3"},{"bufferView":1,"componentType":5126,"count":84,"type":"VEC3"},{"bufferView":2,"componentType":5126,"count":84,"type":"VEC2"},{"bufferView":3,"componentType":5123,"count":84,"type":"SCALAR"}],"bufferViews":[{"buffer":0,"byteLength":1008,"byteOffset":0,"target":34962},{"buffer":0,"byteLength":1008,"byteOffset":1008,"target":34962},{"buffer":0,"byteLength":672,"byteOffset":2016,"target":34962},{"buffer":0,"byteLength":168,"byteOffset":2688,"target":34963}],"buffers":[{"byteLength":2856,"uri":"Stylized_MidGrass_Mesh.bin"}]}
