{"asset":{"generator":"Khronos glTF Blender I/O v5.1.19","version":"2.0"},"scene":0,"scenes":[{"name":"Scene","nodes":[0]}],"nodes":[{"mesh":0,"name":"default","rotation":[0.7071068286895752,0,0,0.7071068286895752],"scale":[1,1,1]}],"materials":[{"doubleSided":true,"name":"Material","pbrMetallicRoughness":{"baseColorFactor":[0.6000000238418579,0.6000000238418579,0.6000000238418579,1],"metallicFactor":0,"roughnessFactor":0.5527864098548889}}],"meshes":[{"name":"Mesh","primitives":[{"attributes":{"POSITION":0,"NORMAL":1,"TEXCOORD_0":2},"indices":3,"material":0}]}],"accessors":[{"bufferView":0,"componentType":5126,"count":150,"max":[1.135146975517273,0.9330599904060364,0.04015899822115898],"min":[-0.7744640111923218,-0.9111909866333008,-0.7326340079307556],"type":"VEC3"},{"bufferView":1,"componentType":5126,"count":150,"type":"VEC3"},{"bufferView":2,"componentType":5126,"count":150,"type":"VEC2"},{"bufferView":3,"componentType":5123,"count":150,"type":"SCALAR"}],"bufferViews":[{"buffer":0,"byteLength":1800,"byteOffset":0,"target":34962},{"buffer":0,"byteLength":1800,"byteOffset":1800,"target":34962},{"buffer":0,"byteLength":1200,"byteOffset":3600,"target":34962},{"buffer":0,"byteLength":300,"byteOffset":4800,"target":34963}],"buffers":[{"byteLength":5100,"uri":"Stylized_HighGrass_Mesh.bin"}]}
